HIERARCHY
ROOT mixamorig:Hips
{
	OFFSET 0.000000 201.639420 0.000000
	CHANNELS 6 Xposition Yposition Zposition Xrotation Yrotation Zrotation
	JOINT mixamorig:Spine
	{
		OFFSET 0.006200 19.524994 -2.481800
		CHANNELS 3 Xrotation Yrotation Zrotation
		JOINT mixamorig:Spine1
		{
			OFFSET -0.000900 22.835007 -2.825400
			CHANNELS 3 Xrotation Yrotation Zrotation
			JOINT mixamorig:Spine2
			{
				OFFSET -0.020600 26.552490 -3.193300
				CHANNELS 3 Xrotation Yrotation Zrotation
				JOINT mixamorig:Neck
				{
					OFFSET -0.060000 30.701813 1.352200
					CHANNELS 3 Xrotation Yrotation Zrotation
					JOINT mixamorig:Head
					{
						OFFSET -0.087200 22.547607 3.670900
						CHANNELS 3 Xrotation Yrotation Zrotation
						JOINT mixamorig:HeadTop_End
						{
							OFFSET -0.830600 40.355194 7.893500
							CHANNELS 3 Xrotation Yrotation Zrotation
							End Site
							{
								OFFSET 0.000000 30.592346 0.000000
							}
						}
						JOINT mixamorig:RightEye
						{
							OFFSET -6.302100 18.118591 16.197100
							CHANNELS 3 Xrotation Yrotation Zrotation
							End Site
							{
								OFFSET 0.000000 30.592346 0.000000
							}
						}
						JOINT mixamorig:LeftEye
						{
							OFFSET 6.741500 18.382690 16.401899
							CHANNELS 3 Xrotation Yrotation Zrotation
							End Site
							{
								OFFSET 0.000000 30.592346 0.000000
							}
						}
					}
				}
				JOINT mixamorig:LeftShoulder
				{
					OFFSET 11.924900 18.230499 1.425400
					CHANNELS 3 Xrotation Yrotation Zrotation
					JOINT mixamorig:LeftArm
					{
						OFFSET 25.435989 -0.697632 -5.229300
						CHANNELS 3 Xrotation Yrotation Zrotation
						JOINT mixamorig:LeftForeArm
						{
							OFFSET 54.684776 0.000000 0.000000
							CHANNELS 3 Xrotation Yrotation Zrotation
							JOINT mixamorig:LeftHand
							{
								OFFSET 55.098175 0.000000 0.000000
								CHANNELS 3 Xrotation Yrotation Zrotation
								JOINT mixamorig:LeftHandMiddle1
								{
									OFFSET 23.369751 0.000000 0.000000
									CHANNELS 3 Xrotation Yrotation Zrotation
									JOINT mixamorig:LeftHandMiddle2
									{
										OFFSET 6.378677 0.000000 0.000000
										CHANNELS 3 Xrotation Yrotation Zrotation
										JOINT mixamorig:LeftHandMiddle3
										{
											OFFSET 6.148331 0.000000 0.000000
											CHANNELS 3 Xrotation Yrotation Zrotation
											JOINT mixamorig:LeftHandMiddle4
											{
												OFFSET 6.582504 0.000000 0.000000
												CHANNELS 3 Xrotation Yrotation Zrotation
												End Site
												{
													OFFSET -1.168900 6.395691 1.028606
												}
											}
										}
									}
								}
								JOINT mixamorig:LeftHandThumb1
								{
									OFFSET 7.235672 -3.848206 5.434273
									CHANNELS 3 Xrotation Yrotation Zrotation
									JOINT mixamorig:LeftHandThumb2
									{
										OFFSET 6.568451 -3.792297 3.792300
										CHANNELS 3 Xrotation Yrotation Zrotation
										JOINT mixamorig:LeftHandThumb3
										{
											OFFSET 6.063080 -3.500519 3.500518
											CHANNELS 3 Xrotation Yrotation Zrotation
											JOINT mixamorig:LeftHandThumb4
											{
												OFFSET 4.793182 -2.767334 2.767349
												CHANNELS 3 Xrotation Yrotation Zrotation
												End Site
												{
													OFFSET 0.101639 6.054260 1.275483
												}
											}
										}
									}
								}
								JOINT mixamorig:LeftHandIndex1
								{
									OFFSET 23.101074 -0.309540 4.992809
									CHANNELS 3 Xrotation Yrotation Zrotation
									JOINT mixamorig:LeftHandIndex2
									{
										OFFSET 6.226883 0.000000 0.000000
										CHANNELS 3 Xrotation Yrotation Zrotation
										JOINT mixamorig:LeftHandIndex3
										{
											OFFSET 6.094330 0.000000 0.000000
											CHANNELS 3 Xrotation Yrotation Zrotation
											JOINT mixamorig:LeftHandIndex4
											{
												OFFSET 5.482605 0.000000 0.000000
												CHANNELS 3 Xrotation Yrotation Zrotation
												End Site
												{
													OFFSET -1.427902 5.233032 0.797164
												}
											}
										}
									}
								}
								JOINT mixamorig:LeftHandRing1
								{
									OFFSET 22.299240 0.021149 -3.964172
									CHANNELS 3 Xrotation Yrotation Zrotation
									JOINT mixamorig:LeftHandRing2
									{
										OFFSET 6.321869 0.000000 0.000000
										CHANNELS 3 Xrotation Yrotation Zrotation
										JOINT mixamorig:LeftHandRing3
										{
											OFFSET 5.899796 0.000000 0.000000
											CHANNELS 3 Xrotation Yrotation Zrotation
											JOINT mixamorig:LeftHandRing4
											{
												OFFSET 6.517899 0.000000 0.000000
												CHANNELS 3 Xrotation Yrotation Zrotation
												End Site
												{
													OFFSET -1.637299 6.232208 0.980890
												}
											}
										}
									}
								}
								JOINT mixamorig:LeftHandPinky1
								{
									OFFSET 20.463791 -0.302338 -8.562233
									CHANNELS 3 Xrotation Yrotation Zrotation
									JOINT mixamorig:LeftHandPinky2
									{
										OFFSET 6.908646 0.000000 0.000000
										CHANNELS 3 Xrotation Yrotation Zrotation
										JOINT mixamorig:LeftHandPinky3
										{
											OFFSET 4.622849 0.000000 0.000000
											CHANNELS 3 Xrotation Yrotation Zrotation
											JOINT mixamorig:LeftHandPinky4
											{
												OFFSET 5.216080 0.000000 0.000000
												CHANNELS 3 Xrotation Yrotation Zrotation
												End Site
												{
													OFFSET -0.606308 5.116241 0.814926
												}
											}
										}
									}
								}
							}
						}
					}
				}
				JOINT mixamorig:RightShoulder
				{
					OFFSET -12.001300 18.284088 1.348900
					CHANNELS 3 Xrotation Yrotation Zrotation
					JOINT mixamorig:RightArm
					{
						OFFSET -25.308500 -0.751312 -5.164599
						CHANNELS 3 Xrotation Yrotation Zrotation
						JOINT mixamorig:RightForeArm
						{
							OFFSET -54.684429 0.000000 0.000000
							CHANNELS 3 Xrotation Yrotation Zrotation
							JOINT mixamorig:RightHand
							{
								OFFSET -55.150291 0.000000 0.000000
								CHANNELS 3 Xrotation Yrotation Zrotation
								JOINT mixamorig:RightHandMiddle1
								{
									OFFSET -23.317566 0.000000 0.000000
									CHANNELS 3 Xrotation Yrotation Zrotation
									JOINT mixamorig:RightHandMiddle2
									{
										OFFSET -6.378403 0.000000 0.000000
										CHANNELS 3 Xrotation Yrotation Zrotation
										JOINT mixamorig:RightHandMiddle3
										{
											OFFSET -6.148193 0.000000 0.000000
											CHANNELS 3 Xrotation Yrotation Zrotation
											JOINT mixamorig:RightHandMiddle4
											{
												OFFSET -6.583389 0.000000 0.000000
												CHANNELS 3 Xrotation Yrotation Zrotation
												End Site
												{
													OFFSET 1.171692 6.395905 1.029786
												}
											}
										}
									}
								}
								JOINT mixamorig:RightHandThumb1
								{
									OFFSET -7.190521 -3.860474 5.435846
									CHANNELS 3 Xrotation Yrotation Zrotation
									JOINT mixamorig:RightHandThumb2
									{
										OFFSET -6.567429 -3.791718 3.791708
										CHANNELS 3 Xrotation Yrotation Zrotation
										JOINT mixamorig:RightHandThumb3
										{
											OFFSET -6.062469 -3.500153 3.500166
											CHANNELS 3 Xrotation Yrotation Zrotation
											JOINT mixamorig:RightHandThumb4
											{
												OFFSET -4.792618 -2.767029 2.767022
												CHANNELS 3 Xrotation Yrotation Zrotation
												End Site
												{
													OFFSET -0.100327 6.053253 1.276754
												}
											}
										}
									}
								}
								JOINT mixamorig:RightHandIndex1
								{
									OFFSET -23.048981 -0.310791 4.992554
									CHANNELS 3 Xrotation Yrotation Zrotation
									JOINT mixamorig:RightHandIndex2
									{
										OFFSET -6.227539 0.000000 0.000000
										CHANNELS 3 Xrotation Yrotation Zrotation
										JOINT mixamorig:RightHandIndex3
										{
											OFFSET -6.095047 0.000000 0.000000
											CHANNELS 3 Xrotation Yrotation Zrotation
											JOINT mixamorig:RightHandIndex4
											{
												OFFSET -5.484772 0.000000 0.000000
												CHANNELS 3 Xrotation Yrotation Zrotation
												End Site
												{
													OFFSET 1.420593 5.237305 0.797056
												}
											}
										}
									}
								}
								JOINT mixamorig:RightHandRing1
								{
									OFFSET -22.246323 0.020569 -3.963762
									CHANNELS 3 Xrotation Yrotation Zrotation
									JOINT mixamorig:RightHandRing2
									{
										OFFSET -6.322128 0.000000 0.000000
										CHANNELS 3 Xrotation Yrotation Zrotation
										JOINT mixamorig:RightHandRing3
										{
											OFFSET -5.900024 0.000000 0.000000
											CHANNELS 3 Xrotation Yrotation Zrotation
											JOINT mixamorig:RightHandRing4
											{
												OFFSET -6.518356 0.000000 0.000000
												CHANNELS 3 Xrotation Yrotation Zrotation
												End Site
												{
													OFFSET 1.636398 6.232697 0.982186
												}
											}
										}
									}
								}
								JOINT mixamorig:RightHandPinky1
								{
									OFFSET -20.411011 -0.303314 -8.561701
									CHANNELS 3 Xrotation Yrotation Zrotation
									JOINT mixamorig:RightHandPinky2
									{
										OFFSET -6.907349 0.000000 0.000000
										CHANNELS 3 Xrotation Yrotation Zrotation
										JOINT mixamorig:RightHandPinky3
										{
											OFFSET -4.623840 0.000000 0.000000
											CHANNELS 3 Xrotation Yrotation Zrotation
											JOINT mixamorig:RightHandPinky4
											{
												OFFSET -5.218353 0.000000 0.000000
												CHANNELS 3 Xrotation Yrotation Zrotation
												End Site
												{
													OFFSET 0.602097 5.118835 0.816273
												}
											}
										}
									}
								}
							}
						}
					}
				}
			}
		}
	}
	JOINT mixamorig:LeftUpLeg
	{
		OFFSET 18.168400 -13.561905 -0.039000
		CHANNELS 3 Xrotation Yrotation Zrotation
		JOINT mixamorig:LeftLeg
		{
			OFFSET 0.577358 -80.825211 -3.695000
			CHANNELS 3 Xrotation Yrotation Zrotation
			JOINT mixamorig:LeftFoot
			{
				OFFSET -0.577356 -83.370262 -6.520700
				CHANNELS 3 Xrotation Yrotation Zrotation
				JOINT mixamorig:LeftToeBase
				{
					OFFSET 0.750401 -20.798306 25.135401
					CHANNELS 3 Xrotation Yrotation Zrotation
					JOINT mixamorig:LeftToe_End
					{
						OFFSET -0.000500 0.001200 19.917799
						CHANNELS 3 Xrotation Yrotation Zrotation
						End Site
						{
							OFFSET 0.000000 19.917805 0.000000
						}
					}
				}
			}
		}
	}
	JOINT mixamorig:RightUpLeg
	{
		OFFSET -18.162500 -13.585098 -0.041000
		CHANNELS 3 Xrotation Yrotation Zrotation
		JOINT mixamorig:RightLeg
		{
			OFFSET -0.595024 -80.945297 -3.631900
			CHANNELS 3 Xrotation Yrotation Zrotation
			JOINT mixamorig:RightFoot
			{
				OFFSET 0.595024 -83.218193 -6.561200
				CHANNELS 3 Xrotation Yrotation Zrotation
				JOINT mixamorig:RightToeBase
				{
					OFFSET -0.753601 -20.807106 25.115000
					CHANNELS 3 Xrotation Yrotation Zrotation
					JOINT mixamorig:RightToe_End
					{
						OFFSET 0.000299 0.001700 19.918200
						CHANNELS 3 Xrotation Yrotation Zrotation
						End Site
						{
							OFFSET 0.000000 19.918203 0.000000
						}
					}
				}
			}
		}
	}
}
MOTION
Frames: 4
Frame Time: 0.033333
0.156423 198.922226 0.853000 2.565263 -5.707317 -2.401666 2.768179 2.435532 0.682587 1.935030 0.329341 -1.918866 1.945527 0.315063 -1.914586 -0.977800 -0.397238 3.479580 1.341763 2.928913 -0.631877 -0.000000 -0.000000 0.000000 -0.000000 -0.000000 0.000000 -0.000000 -0.000000 0.000000 0.690563 -3.225637 10.867914 50.422639 -30.297199 -36.786859 0.000047 -71.522988 0.000033 29.804353 1.768089 0.883241 0.253791 1.855733 -15.573759 0.353263 2.181204 -18.397444 0.369711 2.229984 -18.824596 0.000002 0.000000 -0.000003 -1.627247 8.968115 6.932361 4.379916 13.244953 1.150266 -0.579465 1.574989 2.538720 0.000002 -0.000001 -0.000003 0.204824 1.670234 -13.982347 0.198640 1.645094 -13.767832 0.195787 1.633566 -13.669211 0.000001 -0.000000 0.000000 0.453917 2.462988 -20.880884 0.633140 2.888919 -24.718523 0.665746 2.958598 -25.357595 -0.000002 -0.000001 -0.000000 3.064683 7.033135 -30.608595 0.990436 -0.518892 -31.314051 0.972649 3.533304 -30.773718 0.000001 -0.000000 0.000002 2.217274 6.978591 -6.557538 53.085245 38.478824 30.878278 -0.000045 69.497250 0.000041 19.510005 -5.655636 -1.332304 0.264080 -1.901653 15.809813 0.389859 -2.299759 19.240486 0.427731 -2.405400 20.163145 0.000000 -0.000000 0.000001 -2.030253 -12.017200 -7.916336 5.396305 -17.106670 -0.803875 -1.273773 0.137304 -2.094873 -0.000002 -0.000001 -0.000000 0.346032 -2.170189 18.116672 0.369977 -2.241971 18.738569 0.383587 -2.281712 19.083644 -0.000000 0.000000 -0.000004 0.311290 -2.061058 17.175559 0.455342 -2.479223 20.810915 0.497750 -2.587977 21.770588 0.000000 -0.000000 -0.000003 0.530741 -2.668971 22.489646 0.552122 -2.720039 22.944649 0.568403 -2.758102 23.285186 -0.000000 -0.000001 -0.000004 -9.816546 4.456780 12.567731 13.619039 9.520316 0.624895 -1.930406 15.065644 -11.222481 -0.647288 0.000007 0.000002 0.000000 0.000000 0.000000 -9.562087 -10.103568 -5.080422 9.512752 -4.600709 -2.667907 -1.301914 -1.784006 8.603206 -1.015780 -0.000004 0.000003 -0.000000 -0.000000 -0.000000 
0.447471 198.965836 1.074081 2.428979 -5.552458 -2.461461 2.429900 2.133486 0.489442 2.315644 0.293472 -1.794604 2.325761 0.277659 -1.791867 -1.637910 -0.438363 3.987483 1.486665 3.378181 -0.201544 -0.000000 0.000000 -0.000000 -0.000000 0.000000 -0.000000 -0.000000 0.000000 -0.000000 0.936314 -4.535520 12.302148 48.830016 -27.342743 -40.269002 -0.000015 -74.381013 -0.000022 33.645184 4.829515 0.632995 0.251859 1.848790 -15.513897 0.353555 2.182028 -18.404669 0.370277 2.231659 -18.839316 0.000002 -0.000000 0.000000 -1.627245 8.968116 6.932364 4.379918 13.244953 1.150268 -0.579464 1.574991 2.538721 0.000001 0.000001 0.000000 0.201321 1.656116 -13.861666 0.199802 1.649850 -13.808472 0.196022 1.634511 -13.677235 0.000001 0.000001 -0.000000 0.453388 2.461627 -20.868801 0.633033 2.888682 -24.716447 0.666863 2.960953 -25.379130 -0.000003 0.000001 0.000005 3.068664 7.035295 -30.641137 0.989335 -0.520721 -31.296364 0.974829 3.536953 -30.809153 0.000001 -0.000003 0.000001 2.215093 6.953919 -6.486439 52.908565 38.635740 31.094569 0.000004 68.049236 -0.000022 18.211371 -7.020759 -2.169055 0.265708 -1.907408 15.859009 0.389879 -2.299775 19.240909 0.426900 -2.403134 20.143162 0.000002 -0.000000 -0.000001 -2.030252 -12.017202 -7.916338 5.396304 -17.106672 -0.803878 -1.273772 0.137304 -2.094871 -0.000002 -0.000004 -0.000004 0.350458 -2.183636 18.233026 0.368676 -2.238159 18.705388 0.382944 -2.279820 19.067405 0.000001 0.000000 -0.000004 0.311017 -2.060175 17.168107 0.455867 -2.480643 20.823447 0.496570 -2.584991 21.744220 0.000000 -0.000000 -0.000002 0.527723 -2.661680 22.424616 0.554009 -2.724450 22.984206 0.566288 -2.753197 23.241349 0.000000 -0.000000 -0.000001 -9.838412 5.528540 12.211749 13.406685 8.910776 1.651829 -1.899775 14.319080 -11.588259 -0.270127 0.000000 0.000001 0.000000 0.000000 0.000000 -9.906558 -10.050518 -5.186477 10.667390 -4.511993 -2.443683 -1.923423 -2.162232 7.497575 -1.481137 0.000006 0.000001 -0.000000 -0.000000 0.000000 
0.766040 198.903381 1.327089 2.285650 -5.290398 -2.425321 1.971835 1.824372 0.195766 2.747981 0.257137 -1.597843 2.757762 0.240649 -1.596913 -2.349530 -0.503123 4.442053 1.561897 3.653055 0.357329 -0.000000 -0.000000 -0.000000 -0.000000 -0.000000 -0.000000 -0.000000 -0.000000 -0.000000 1.204107 -5.682711 13.566832 47.035203 -25.019741 -44.030193 -0.000088 -75.827141 -0.000078 36.451050 7.719447 -0.436956 0.240175 1.806216 -15.147626 0.350782 2.173711 -18.332074 0.370326 2.231802 -18.840631 -0.000001 0.000001 -0.000003 -1.627248 8.968119 6.932357 4.379917 13.244953 1.150269 -0.579465 1.574990 2.538722 0.000001 0.000001 0.000004 0.181900 1.575360 -13.173032 0.199717 1.649540 -13.805734 0.196635 1.636983 -13.698403 0.000000 0.000001 -0.000001 0.448046 2.447592 -20.744082 0.631564 2.885489 -24.687077 0.667187 2.961663 -25.385742 -0.000000 -0.000000 -0.000002 3.079139 7.040935 -30.726719 0.988733 -0.521683 -31.286983 0.975575 3.538218 -30.821307 -0.000001 -0.000001 -0.000001 2.157296 6.690245 -6.252445 51.956925 39.375781 31.797502 -0.000035 65.299259 0.000016 15.769524 -9.358019 -3.264199 0.258899 -1.883398 15.653979 0.389022 -2.297287 19.219032 0.425860 -2.400297 20.118505 0.000001 -0.000001 0.000004 -2.030251 -12.017200 -7.916334 5.396304 -17.106666 -0.803879 -1.273772 0.137302 -2.094870 -0.000001 -0.000002 -0.000000 0.338582 -2.147358 17.919285 0.369547 -2.240723 18.727667 0.381807 -2.276542 19.038792 -0.000000 0.000000 -0.000001 0.305902 -2.043569 17.025278 0.455356 -2.479276 20.811359 0.495687 -2.582816 21.724791 0.000001 -0.000000 0.000004 0.522392 -2.648802 22.310067 0.554792 -2.726260 23.000413 0.565437 -2.751224 23.223591 -0.000001 -0.000001 0.000002 -10.185602 7.127354 12.541003 13.824748 7.430148 1.340344 -2.360673 13.673976 -11.227542 -0.141352 0.000005 -0.000001 0.000000 0.000003 0.000000 -10.171415 -10.305101 -5.452707 11.659346 -4.256029 -2.336073 -2.488099 -2.479894 7.033173 -1.743099 -0.000001 0.000001 -0.000000 -0.000001 -0.000000 
1.103063 198.701752 1.617504 2.139094 -5.103166 -2.192827 1.263362 1.575758 -0.449124 3.188328 0.228342 -1.226765 3.198288 0.214965 -1.227733 -2.967372 -0.620104 4.535672 1.435415 3.197802 1.173327 0.000000 0.000000 -0.000000 0.000000 0.000000 -0.000000 0.000000 0.000000 -0.000000 1.169400 -5.519706 13.394122 42.815556 -26.120021 -47.644005 -0.000035 -70.174183 -0.000037 37.004442 10.189733 -1.857556 0.226707 1.755704 -14.714109 0.346575 2.160986 -18.220844 0.369915 2.230568 -18.829754 0.000001 -0.000000 0.000002 -1.627250 8.968115 6.932358 4.379921 13.244955 1.150268 -0.579462 1.574993 2.538729 0.000001 0.000000 0.000000 0.160401 1.480495 -12.366374 0.197987 1.642491 -13.745526 0.197221 1.639363 -13.718728 -0.000000 -0.000000 -0.000001 0.441401 2.430000 -20.588000 0.629776 2.881597 -24.651698 0.666955 2.961151 -25.380944 -0.000000 0.000001 0.000002 3.089234 7.046372 -30.809030 0.989751 -0.520032 -31.302958 0.975231 3.537625 -30.815474 -0.000002 -0.000001 -0.000001 1.930479 5.636454 -5.288726 47.888099 42.351749 34.284937 0.000004 58.052653 0.000024 9.430417 -14.866848 -5.192298 0.249298 -1.848765 15.358886 0.387767 -2.293734 19.188281 0.425369 -2.398987 20.106832 0.000001 0.000000 -0.000002 -2.030251 -12.017200 -7.916338 5.396305 -17.106668 -0.803876 -1.273772 0.137304 -2.094869 0.000000 -0.000001 -0.000000 0.320286 -2.089918 17.424084 0.371829 -2.247405 18.785798 0.381142 -2.274636 19.022159 -0.000000 -0.000000 0.000002 0.300194 -2.024792 16.864114 0.453885 -2.475430 20.777412 0.495573 -2.582506 21.722078 0.000001 -0.000000 -0.000002 0.519337 -2.641302 22.243513 0.553235 -2.722638 22.968005 0.566109 -2.752778 23.237422 -0.000001 0.000001 0.000001 -10.755407 9.073305 13.339530 14.738869 4.958591 -0.149977 -3.229791 13.618882 -10.161764 -0.188407 -0.000007 -0.000000 -0.000000 -0.000002 0.000000 -10.694856 -10.504662 -6.048502 13.076927 -3.854849 -2.218982 -3.258216 -2.827080 7.024644 -1.857772 -0.000007 -0.000002 -0.000000 -0.000002 -0.000000 
